<?xml version="1.0" encoding="UTF-8" standalone="no"?>
<svg
   xmlns:dc="http://purl.org/dc/elements/1.1/"
   xmlns:cc="http://creativecommons.org/ns#"
   xmlns:rdf="http://www.w3.org/1999/02/22-rdf-syntax-ns#"
   xmlns:svg="http://www.w3.org/2000/svg"
   xmlns="http://www.w3.org/2000/svg"
   xmlns:sodipodi="http://sodipodi.sourceforge.net/DTD/sodipodi-0.dtd"
   xmlns:inkscape="http://www.inkscape.org/namespaces/inkscape"
   viewBox="0 0 1000 681"
   preserveAspectRatio="none"
   version="1.1"
   id="svg4"
   sodipodi:docname="bg.svg"
   width="1000"
   height="681"
   inkscape:version="0.92.4 (5da689c313, 2019-01-14)">
  <metadata
     id="metadata10">
    <rdf:RDF>
      <cc:Work
         rdf:about="">
        <dc:format>image/svg+xml</dc:format>
        <dc:type
           rdf:resource="http://purl.org/dc/dcmitype/StillImage" />
        <dc:title></dc:title>
      </cc:Work>
    </rdf:RDF>
  </metadata>
  <defs
     id="defs8" />
  <sodipodi:namedview
     pagecolor="#ffffff"
     bordercolor="#666666"
     borderopacity="1"
     objecttolerance="10"
     gridtolerance="10"
     guidetolerance="10"
     inkscape:pageopacity="0"
     inkscape:pageshadow="2"
     inkscape:window-width="1366"
     inkscape:window-height="705"
     id="namedview6"
     showgrid="false"
     inkscape:zoom="0.2814285"
     inkscape:cx="289.16414"
     inkscape:cy="132.18869"
     inkscape:window-x="-8"
     inkscape:window-y="-8"
     inkscape:window-maximized="1"
     inkscape:current-layer="svg4" />
  <path
     style="fill:#25b3c2;fill-opacity:1"
     d="m 440.03906,0.02256016 c -6.30781,0.003 -12.41367,0.29102 -18.13867,0.91602 -10.2,1.10000004 -22.59961,1.40039004 -50.09961,7.40039004 -27.2,6.2999998 -58.20039,16.5992198 -79.40039,24.6992198 -41.3,15.9 -94.9,21.89961 -134,22.59961 C 72.00039,57.2378 0,24.83897 0,24.83897 v 72.19922 2 485.4375 32.1875 c 0,0 51.49922,-19.40117 106.19922,-25.70117 54.3,-6 79.70078,-4.19961 103.30078,-2.09961 59.3,5.3 116.79961,18 192.59961,50 29.6,12.7 76.9,31.00039 100.5,35.90039 23.6,4.9 52.6,7.79883 75.5,5.29883 10.2,-1.1 22.59961,-1.39844 50.09961,-7.39844 27.2,-6.3 58.20039,-16.60117 79.40039,-24.70117 41.3,-15.9 94.9,-21.89961 134,-22.59961 86.4,-1.6 158.40039,30.80078 158.40039,30.80078 v -74.20117 -482.92383 -2 -32.69922 c 0,0 -51.49922,19.39922 -106.19922,25.69922 -54.3,6 -79.70078,4.19961 -103.30078,2.09961 -59.3,-5.3 -116.79961,-18 -192.59961,-50 -29.6,-12.7 -76.9,-31.00039 -100.5,-35.9003898 -17.7,-3.675 -38.43789,-6.22422004 -57.36133,-6.21485004 z"
     id="path2"
     inkscape:connector-curvature="0" />
</svg>
