<?xml version="1.0" encoding="UTF-8" standalone="no"?>
<svg
   xmlns:dc="http://purl.org/dc/elements/1.1/"
   xmlns:cc="http://creativecommons.org/ns#"
   xmlns:rdf="http://www.w3.org/1999/02/22-rdf-syntax-ns#"
   xmlns:svg="http://www.w3.org/2000/svg"
   xmlns="http://www.w3.org/2000/svg"
   xmlns:sodipodi="http://sodipodi.sourceforge.net/DTD/sodipodi-0.dtd"
   xmlns:inkscape="http://www.inkscape.org/namespaces/inkscape"
   viewBox="0 0 1000 681"
   preserveAspectRatio="none"
   version="1.1"
   id="svg4"
   sodipodi:docname="bg.svg"
   width="1000"
   height="681"
   inkscape:version="0.92.4 (5da689c313, 2019-01-14)">
  <metadata
     id="metadata10">
    <rdf:RDF>
      <cc:Work
         rdf:about="">
        <dc:format>image/svg+xml</dc:format>
        <dc:type
           rdf:resource="http://purl.org/dc/dcmitype/StillImage" />
        <dc:title />
      </cc:Work>
    </rdf:RDF>
  </metadata>
  <defs
     id="defs8" />
  <sodipodi:namedview
     pagecolor="#ffffff"
     bordercolor="#666666"
     borderopacity="1"
     objecttolerance="10"
     gridtolerance="10"
     guidetolerance="10"
     inkscape:pageopacity="0"
     inkscape:pageshadow="2"
     inkscape:window-width="1366"
     inkscape:window-height="705"
     id="namedview6"
     showgrid="false"
     inkscape:zoom="0.796"
     inkscape:cx="403.79525"
     inkscape:cy="229.24254"
     inkscape:window-x="-8"
     inkscape:window-y="-8"
     inkscape:window-maximized="1"
     inkscape:current-layer="svg4" />
  <path
     style="fill:#25b3c2;fill-opacity:1;stroke-width:0.83623219"
     d="m 440.03906,204.79642 c -6.30781,0.002 -12.41367,0.2035 -18.13867,0.64056 -10.2,0.76921 -22.59961,0.97927 -50.09961,5.17498 -27.2,4.40548 -58.20039,11.60756 -79.40039,17.27177 -41.3,11.11862 -94.9,15.31405 -134,15.80355 C 72.00039,244.80614 0,222.15015 0,222.15015 v 50.48778 1.39856 339.4588 22.50822 c 0,0 51.49922,-13.56693 106.19922,-17.97243 54.3,-4.1957 79.70078,-2.93672 103.30078,-1.46822 59.3,3.7062 116.79961,12.58711 192.59961,34.96421 29.6,8.88091 76.9,21.67808 100.5,25.10458 23.6,3.42649 52.6,5.4536 75.5,3.70538 10.2,-0.76921 22.59961,-0.9779 50.09961,-5.1736 27.2,-4.4055 58.20039,-11.60894 79.40039,-17.27315 41.3,-11.11861 94.9,-15.31405 134,-15.80354 86.4,-1.11886 158.40039,21.5385 158.40039,21.5385 v -51.88771 -337.70104 -1.39856 -22.86605 c 0,0 -51.49922,13.56556 -106.19922,17.97106 -54.3,4.1957 -79.70078,2.93671 -103.30078,1.46822 -59.3,-3.70621 -116.79961,-12.58712 -192.59961,-34.96421 -29.6,-8.88091 -76.9,-21.67809 -100.5,-25.10458 -17.7,-2.56987 -38.43789,-4.3525 -57.36133,-4.34595 z"
     id="path2"
     inkscape:connector-curvature="0" />
  <path
     inkscape:connector-curvature="0"
     id="path814"
     d="m 440.03906,0.02254596 c -6.30781,0.0013451 -12.41367,0.13048764 -18.13867,0.41072534 -10.2,0.49321837 -22.59961,0.6279073 -50.09961,3.3181893 -27.2,2.8247959 -58.20039,7.4427634 -79.40039,11.0746444 -41.3,7.129247 -94.9,9.819354 -134,10.13322 C 72.00039,25.676734 0,11.149736 0,11.149736 v 32.372709 0.896761 217.660624 14.43224 c 0,0 51.49922,-8.6991 106.19922,-11.5239 54.3,-2.69028 79.70078,-1.88302 103.30078,-0.94142 59.3,2.37641 116.79961,8.07084 192.59961,22.41901 29.6,5.69443 76.9,13.89997 100.5,16.09703 23.6,2.19707 52.6,3.49684 75.5,2.37589 10.2,-0.49322 22.59961,-0.62703 50.09961,-3.31731 27.2,-2.8248 58.20039,-7.44364 79.40039,-11.07552 41.3,-7.12925 94.9,-9.81935 134,-10.13322 C 927.99961,279.69522 1000,294.22309 1000,294.22309 V 260.95275 44.419206 43.522445 28.860759 c 0,0 -51.49922,8.698228 -106.19922,11.523024 C 839.50078,43.074065 814.1,42.266806 790.5,41.325207 731.2,38.948791 673.70039,33.254361 597.90039,18.906191 c -29.6,-5.69443 -76.9,-13.8999651 -100.5,-16.0970286 -17.7,-1.6477977 -38.43789,-2.79081776 -57.36133,-2.78661644 z"
     style="fill:#25b3c2;fill-opacity:1;stroke-width:0.66961205" />
</svg>
