<svg xmlns="http://www.w3.org/2000/svg" xmlns:xlink="http://www.w3.org/1999/xlink" viewBox="0 0 331.26 147.09"><defs><style>.cls-1{fill:url(#Gradiente_sem_nome_8);}.cls-2{fill:#1d1d1b;}.cls-3{fill:url(#Gradiente_sem_nome_106);}.cls-4{fill:url(#Gradiente_sem_nome_106-8);}.cls-5{fill:url(#Gradiente_sem_nome_103);}.cls-6{fill:url(#Gradiente_sem_nome_8-2);}.cls-7{font-size:52.42px;fill:#426dc9;font-family:CenturyGothic-Bold, Century Gothic;font-weight:700;}.cls-8{fill:url(#Gradiente_sem_nome_8-3);}</style><linearGradient id="Gradiente_sem_nome_8" x1="80.78" y1="107.33" x2="80.78" y2="23.86" gradientUnits="userSpaceOnUse"><stop offset="0" stop-color="#ff6a13"/><stop offset="0.65" stop-color="#5d86a2"/><stop offset="1" stop-color="#0895ec"/></linearGradient><linearGradient id="Gradiente_sem_nome_106" x1="238.82" y1="80.61" x2="238.19" y2="-0.47" gradientUnits="userSpaceOnUse"><stop offset="0" stop-color="#ff7400"/><stop offset="0" stop-color="#ff6000"/><stop offset="0.66" stop-color="#5f6baa"/><stop offset="1" stop-color="#0f71ff"/></linearGradient><linearGradient id="Gradiente_sem_nome_106-8" x1="238.4" y1="80.62" x2="237.78" y2="-0.47" xlink:href="#Gradiente_sem_nome_106"/><linearGradient id="Gradiente_sem_nome_103" x1="65.72" y1="131.01" x2="65.72" gradientUnits="userSpaceOnUse"><stop offset="0" stop-color="#ff7400"/><stop offset="0.25" stop-color="#ff6000"/><stop offset="0.74" stop-color="#5f6baa"/><stop offset="1" stop-color="#0f71ff"/></linearGradient><linearGradient id="Gradiente_sem_nome_8-2" x1="41.17" y1="107.41" x2="41.17" y2="24.12" xlink:href="#Gradiente_sem_nome_8"/><linearGradient id="Gradiente_sem_nome_8-3" x1="238.07" y1="86.33" x2="238.07" y2="83.41" xlink:href="#Gradiente_sem_nome_8"/></defs><g id="Camada_2" data-name="Camada 2"><g id="DESIGNED_BY_FREEPIK" data-name="DESIGNED BY FREEPIK"><path class="cls-1" d="M61.85,23.86h-5.5V38.29h4c16.06,0,27.8,11,27.8,27.19s-11.74,27.3-27.8,27.3h-4v14.55h5.44c23.85,0,43.37-18.72,43.37-41.85C105.22,42.58,85.7,23.86,61.85,23.86Z"/><path class="cls-2" d="M160.18,1.56h-12a.94.94,0,0,0-.91.95V36a.94.94,0,0,0,.91.95h12a17.67,17.67,0,1,0,0-35.34Zm-.6,29.18h-5.76V7.67h5.76c6.56,0,11.36,4.65,11.36,11.51S166.14,30.74,159.58,30.74Z"/><rect class="cls-2" x="184.42" y="1.56" width="6.61" height="35.35" rx="0.95"/><path class="cls-2" d="M228.61,20.34V33.27a1,1,0,0,1-.4.81,25.58,25.58,0,0,1-12.53,3.28,18.15,18.15,0,0,1,0-36.3A19.08,19.08,0,0,1,228,5.75a1,1,0,0,1,.05,1.41l-3.13,3.29a.86.86,0,0,1-1.31,0A11.45,11.45,0,0,0,216,7.52a11.57,11.57,0,0,0-11.31,11.71A11.49,11.49,0,0,0,216,30.79a15.88,15.88,0,0,0,6-1.26V25.24h-4a.92.92,0,0,1-1-.91v-4a.93.93,0,0,1,1-1h9.69A1,1,0,0,1,228.61,20.34Z"/><path d="M235.87,2.52a1,1,0,0,1,1-1h4.7a1,1,0,0,1,1,1V35.94a1,1,0,0,1-1,1h-4.7a1,1,0,0,1-1-1Z"/><path class="cls-2" d="M272.08,2.51V6.66a1,1,0,0,1-1,1H263.4V36a1,1,0,0,1-1,.95h-4.69a1,1,0,0,1-1-.95V7.61h-7.73a1,1,0,0,1-1-1V2.51a1,1,0,0,1,1-.95h22.07A1,1,0,0,1,272.08,2.51Z"/><path class="cls-2" d="M304.75,35.59,289.2,1.6a.88.88,0,0,0-.86-.54h-.5a.91.91,0,0,0-.87.54l-15.7,34a.89.89,0,0,0,.86,1.31h4.39a1.51,1.51,0,0,0,1.46-1l2.48-5.45h15.1L298,35.89a1.45,1.45,0,0,0,1.46,1h4.4A.89.89,0,0,0,304.75,35.59ZM282.93,24.83l5-11.11H288l5.05,11.11Z"/><path class="cls-2" d="M329.59,31.8V36a1,1,0,0,1-1,.95H310.15a1,1,0,0,1-1-.95V2.51a1,1,0,0,1,1-.95h4.64a1,1,0,0,1,1,.95V30.85h12.87A1,1,0,0,1,329.59,31.8Z"/><path class="cls-3" d="M160.18,1.56h-12a.94.94,0,0,0-.91.95V36a.94.94,0,0,0,.91.95h12a17.67,17.67,0,1,0,0-35.34Zm-.6,29.18h-5.76V7.67h5.76c6.56,0,11.36,4.65,11.36,11.51S166.14,30.74,159.58,30.74Z"/><rect class="cls-3" x="184.42" y="1.56" width="6.61" height="35.35" rx="0.95"/><path class="cls-3" d="M228.61,20.34V33.27a1,1,0,0,1-.4.81,25.58,25.58,0,0,1-12.53,3.28,18.15,18.15,0,0,1,0-36.3A19.08,19.08,0,0,1,228,5.75a1,1,0,0,1,.05,1.41l-3.13,3.29a.86.86,0,0,1-1.31,0A11.45,11.45,0,0,0,216,7.52a11.57,11.57,0,0,0-11.31,11.71A11.49,11.49,0,0,0,216,30.79a15.88,15.88,0,0,0,6-1.26V25.24h-4a.92.92,0,0,1-1-.91v-4a.93.93,0,0,1,1-1h9.69A1,1,0,0,1,228.61,20.34Z"/><path class="cls-3" d="M235.87,2.52a1,1,0,0,1,1-1h4.7a1,1,0,0,1,1,1V35.94a1,1,0,0,1-1,1h-4.7a1,1,0,0,1-1-1Z"/><path class="cls-3" d="M272.08,2.51V6.66a1,1,0,0,1-1,1H263.4V36a1,1,0,0,1-1,.95h-4.69a1,1,0,0,1-1-.95V7.61h-7.73a1,1,0,0,1-1-1V2.51a1,1,0,0,1,1-.95h22.07A1,1,0,0,1,272.08,2.51Z"/><path class="cls-3" d="M304.75,35.59,289.2,1.6a.88.88,0,0,0-.86-.54h-.5a.91.91,0,0,0-.87.54l-15.7,34a.89.89,0,0,0,.86,1.31h4.39a1.51,1.51,0,0,0,1.46-1l2.48-5.45h15.1L298,35.89a1.45,1.45,0,0,0,1.46,1h4.4A.89.89,0,0,0,304.75,35.59ZM282.93,24.83l5-11.11H288l5.05,11.11Z"/><path class="cls-3" d="M329.59,31.8V36a1,1,0,0,1-1,.95H310.15a1,1,0,0,1-1-.95V2.51a1,1,0,0,1,1-.95h4.64a1,1,0,0,1,1,.95V30.85h12.87A1,1,0,0,1,329.59,31.8Z"/><path class="cls-2" d="M175.74,74.19a17.34,17.34,0,0,1-12.27,4.9,18.18,18.18,0,1,1,0-36.36,17.08,17.08,0,0,1,12.22,4.69,1,1,0,0,1,.05,1.42L172.66,52a.81.81,0,0,1-1.26,0,11.93,11.93,0,0,0-7.78-3c-6.46,0-11.27,5.39-11.27,11.76a11.44,11.44,0,0,0,11.33,11.66,12.11,12.11,0,0,0,7.72-2.88.92.92,0,0,1,1.26,0l3.14,3.23A1,1,0,0,1,175.74,74.19Z"/><path class="cls-2" d="M197.29,42.73A18.18,18.18,0,1,0,215.48,61,18.1,18.1,0,0,0,197.29,42.73Zm0,29.79a11.61,11.61,0,0,1,0-23.22,11.61,11.61,0,1,1,0,23.22Z"/><path class="cls-2" d="M258.34,78.58h-4.58a1.11,1.11,0,0,1-1-.76l-3-19.13h-.15l-8.83,19.84a.87.87,0,0,1-.86.56h-.91a.92.92,0,0,1-.87-.56l-8.94-19.84h-.14l-2.93,19.13a1,1,0,0,1-.91.76h-4.55a.92.92,0,0,1-.95-1.16l6-33.94a.86.86,0,0,1,.91-.75h.81a.91.91,0,0,1,.86.5l11.11,23.83h.15l11.11-23.83a.86.86,0,0,1,.85-.5h.82a.84.84,0,0,1,.9.75l6,33.94A.88.88,0,0,1,258.34,78.58Z"/><path class="cls-2" d="M284.05,60.7v-.25a8.88,8.88,0,0,0,5.05-7.88c0-5.3-4.65-9.34-10.66-9.34H266.88a1,1,0,0,0-1,1V77.62a1,1,0,0,0,1,1H279.1c6.16,0,11-4.09,11-9.74C290.1,64.08,287,61.71,284.05,60.7ZM272.43,49.24h5.5a4,4,0,0,1,4.25,4.3,4.25,4.25,0,0,1-4.25,4.54h-5.5Zm6.21,23.38h-6.21v-9h6.21a4.32,4.32,0,0,1,4.44,4.4A4.42,4.42,0,0,1,278.64,72.62Z"/><path class="cls-2" d="M313.08,42.73A18.18,18.18,0,1,0,331.26,61,18.1,18.1,0,0,0,313.08,42.73Zm0,29.79a11.61,11.61,0,0,1,0-23.22,11.61,11.61,0,1,1,0,23.22Z"/><path class="cls-4" d="M175.74,74.19a17.34,17.34,0,0,1-12.27,4.9,18.18,18.18,0,1,1,0-36.36,17.08,17.08,0,0,1,12.22,4.69,1,1,0,0,1,.05,1.42L172.66,52a.81.81,0,0,1-1.26,0,11.93,11.93,0,0,0-7.78-3c-6.46,0-11.27,5.39-11.27,11.76a11.44,11.44,0,0,0,11.33,11.66,12.11,12.11,0,0,0,7.72-2.88.92.92,0,0,1,1.26,0l3.14,3.23A1,1,0,0,1,175.74,74.19Z"/><path class="cls-4" d="M197.29,42.73A18.18,18.18,0,1,0,215.48,61,18.1,18.1,0,0,0,197.29,42.73Zm0,29.79a11.61,11.61,0,0,1,0-23.22,11.61,11.61,0,1,1,0,23.22Z"/><path class="cls-4" d="M258.34,78.58h-4.58a1.11,1.11,0,0,1-1-.76l-3-19.13h-.15l-8.83,19.84a.87.87,0,0,1-.86.56h-.91a.92.92,0,0,1-.87-.56l-8.94-19.84h-.14l-2.93,19.13a1,1,0,0,1-.91.76h-4.55a.92.92,0,0,1-.95-1.16l6-33.94a.86.86,0,0,1,.91-.75h.81a.91.91,0,0,1,.86.5l11.11,23.83h.15l11.11-23.83a.86.86,0,0,1,.85-.5h.82a.84.84,0,0,1,.9.75l6,33.94A.88.88,0,0,1,258.34,78.58Z"/><path class="cls-4" d="M284.05,60.7v-.25a8.88,8.88,0,0,0,5.05-7.88c0-5.3-4.65-9.34-10.66-9.34H266.88a1,1,0,0,0-1,1V77.62a1,1,0,0,0,1,1H279.1c6.16,0,11-4.09,11-9.74C290.1,64.08,287,61.71,284.05,60.7ZM272.43,49.24h5.5a4,4,0,0,1,4.25,4.3,4.25,4.25,0,0,1-4.25,4.54h-5.5Zm6.21,23.38h-6.21v-9h6.21a4.32,4.32,0,0,1,4.44,4.4A4.42,4.42,0,0,1,278.64,72.62Z"/><path class="cls-4" d="M313.08,42.73A18.18,18.18,0,1,0,331.26,61,18.1,18.1,0,0,0,313.08,42.73Zm0,29.79a11.61,11.61,0,0,1,0-23.22,11.61,11.61,0,1,1,0,23.22Z"/><path class="cls-5" d="M0,0V131H131.44V0ZM115.76,114.9H15.68V16.1H115.76Z"/><polyline class="cls-6" points="51.24 38.53 51.24 24.12 31.1 24.12 31.1 107.41 51.24 107.41 51.24 38.53"/><text class="cls-7" transform="translate(145.24 131.01)">Pay</text><rect class="cls-8" x="144.98" y="83.41" width="186.18" height="2.92"/></g></g></svg>