<?xml version="1.0" standalone="no"?>
<!DOCTYPE svg PUBLIC "-//W3C//DTD SVG 20010904//EN"
 "http://www.w3.org/TR/2001/REC-SVG-20010904/DTD/svg10.dtd">
<svg version="1.0" xmlns="http://www.w3.org/2000/svg"
 width="64.000000pt" height="64.000000pt" viewBox="0 0 64.000000 64.000000"
 preserveAspectRatio="xMidYMid meet">

<g transform="translate(0.000000,64.000000) scale(0.100000,-0.100000)"
fill="#000000" stroke="none">
<path d="M383 408 l-163 -162 -63 62 c-40 39 -71 62 -85 62 -29 0 -72 -42 -72
-71 0 -24 180 -214 213 -225 16 -5 60 34 219 192 109 110 201 210 205 223 5
19 -1 31 -26 53 -17 15 -39 28 -48 28 -9 0 -90 -73 -180 -162z"/>
</g>
</svg>
