<?xml version="1.0" encoding="iso-8859-1"?>
<!-- Generator: Adobe Illustrator 19.0.0, SVG Export Plug-In . SVG Version: 6.00 Build 0)  -->
<svg version="1.1" id="Capa_1" xmlns="http://www.w3.org/2000/svg" xmlns:xlink="http://www.w3.org/1999/xlink" x="0px" y="0px"
	 viewBox="0 0 512 512" style="enable-background:new 0 0 512 512;" xml:space="preserve">
<g>
	<rect x="34.133" y="85.333" style="fill:#2195F2;" width="17.067" height="145.067"/>
	<polygon style="fill:#2195F2;" points="102.4,230.4 102.4,85.333 85.333,85.333 68.267,85.333 68.267,230.4 85.333,230.4 	"/>
	<rect x="119.467" y="85.333" style="fill:#2195F2;" width="17.067" height="145.067"/>
	<rect x="153.6" y="85.333" style="fill:#2195F2;" width="17.067" height="145.067"/>
	<polygon style="fill:#2195F2;" points="221.867,230.4 221.867,85.333 204.8,85.333 187.733,85.333 187.733,230.4 204.8,230.4 	"/>
	<polygon style="fill:#2195F2;" points="273.067,230.4 273.067,85.333 256,85.333 238.933,85.333 238.933,230.4 256,230.4 	"/>
	<rect x="290.133" y="85.333" style="fill:#2195F2;" width="17.067" height="145.067"/>
	<polygon style="fill:#2195F2;" points="358.4,230.4 358.4,85.333 341.333,85.333 324.267,85.333 324.267,230.4 341.333,230.4 	"/>
	<rect x="375.467" y="85.333" style="fill:#2195F2;" width="17.067" height="145.067"/>
	<rect x="409.6" y="85.333" style="fill:#2195F2;" width="17.067" height="145.067"/>
	<polygon style="fill:#2195F2;" points="477.867,230.4 477.867,85.333 460.8,85.333 443.733,85.333 443.733,230.4 460.8,230.4 	"/>
</g>
<rect y="247.467" style="fill:#E01717;" width="512" height="17.067"/>
<g>
	<rect x="33.596" y="281.6" style="fill:#2195F2;" width="17.067" height="145.067"/>
	<polygon style="fill:#2195F2;" points="67.729,281.6 67.729,426.667 84.796,426.667 101.862,426.667 101.862,281.6 84.796,281.6 	
		"/>
	<rect x="118.929" y="281.6" style="fill:#2195F2;" width="17.067" height="145.067"/>
	<rect x="153.062" y="281.6" style="fill:#2195F2;" width="17.067" height="145.067"/>
	<polygon style="fill:#2195F2;" points="187.196,281.6 187.196,426.667 204.262,426.667 221.329,426.667 221.329,281.6 
		204.262,281.6 	"/>
	<polygon style="fill:#2195F2;" points="238.396,281.6 238.396,426.667 255.462,426.667 272.529,426.667 272.529,281.6 
		255.462,281.6 	"/>
	<rect x="289.596" y="281.6" style="fill:#2195F2;" width="17.067" height="145.067"/>
	<polygon style="fill:#2195F2;" points="323.729,281.6 323.729,426.667 340.796,426.667 357.862,426.667 357.862,281.6 
		340.796,281.6 	"/>
	<rect x="374.929" y="281.6" style="fill:#2195F2;" width="17.067" height="145.067"/>
	<rect x="409.062" y="281.6" style="fill:#2195F2;" width="17.067" height="145.067"/>
	<polygon style="fill:#2195F2;" points="443.733,281.6 443.733,426.667 460.8,426.667 477.867,426.667 477.867,281.6 460.8,281.6 	
		"/>
</g>
<rect x="34.133" y="85.333" width="17.067" height="145.067"/>
<polygon points="102.4,230.4 102.4,85.333 85.333,85.333 68.267,85.333 68.267,230.4 85.333,230.4 "/>
<rect x="119.467" y="85.333" width="17.067" height="145.067"/>
<rect x="153.6" y="85.333" width="17.067" height="145.067"/>
<polygon points="221.867,230.4 221.867,85.333 204.8,85.333 187.733,85.333 187.733,230.4 204.8,230.4 "/>
<polygon points="273.067,230.4 273.067,85.333 256,85.333 238.933,85.333 238.933,230.4 256,230.4 "/>
<rect x="290.133" y="85.333" width="17.067" height="145.067"/>
<polygon points="358.4,230.4 358.4,85.333 341.333,85.333 324.267,85.333 324.267,230.4 341.333,230.4 "/>
<rect x="375.467" y="85.333" width="17.067" height="145.067"/>
<rect x="409.6" y="85.333" width="17.067" height="145.067"/>
<polygon points="477.867,230.4 477.867,85.333 460.8,85.333 443.733,85.333 443.733,230.4 460.8,230.4 "/>
<rect x="33.596" y="281.6" width="17.067" height="145.067"/>
<polygon points="67.729,281.6 67.729,426.667 84.796,426.667 101.862,426.667 101.862,281.6 84.796,281.6 "/>
<rect x="118.929" y="281.6" width="17.067" height="145.067"/>
<rect x="153.062" y="281.6" width="17.067" height="145.067"/>
<polygon points="187.196,281.6 187.196,426.667 204.262,426.667 221.329,426.667 221.329,281.6 204.262,281.6 "/>
<polygon points="238.396,281.6 238.396,426.667 255.462,426.667 272.529,426.667 272.529,281.6 255.462,281.6 "/>
<rect x="289.596" y="281.6" width="17.067" height="145.067"/>
<polygon points="323.729,281.6 323.729,426.667 340.796,426.667 357.862,426.667 357.862,281.6 340.796,281.6 "/>
<rect x="374.929" y="281.6" width="17.067" height="145.067"/>
<rect x="409.062" y="281.6" width="17.067" height="145.067"/>
<polygon points="443.733,281.6 443.733,426.667 460.8,426.667 477.867,426.667 477.867,281.6 460.8,281.6 "/>
<g>
</g>
<g>
</g>
<g>
</g>
<g>
</g>
<g>
</g>
<g>
</g>
<g>
</g>
<g>
</g>
<g>
</g>
<g>
</g>
<g>
</g>
<g>
</g>
<g>
</g>
<g>
</g>
<g>
</g>
</svg>
