<?xml version="1.0" encoding="iso-8859-1"?>
<!-- Generator: Adobe Illustrator 21.0.0, SVG Export Plug-In . SVG Version: 6.00 Build 0)  -->
<svg version="1.1" id="Capa_1" xmlns="http://www.w3.org/2000/svg" xmlns:xlink="http://www.w3.org/1999/xlink" x="0px" y="0px"
	 viewBox="0 0 512 512" style="enable-background:new 0 0 512 512;" xml:space="preserve">
<g>
	<g>
		<path d="M383.249,15.53c-61.159,0-95.548,42.402-112.764,74.325C253.224,57.947,218.821,15.53,157.808,15.53
			c-72.828,0-127.75,59.06-127.75,137.392c0,30.033,9.219,58.191,27.754,87.011c19.071-8.774,40.09-13.992,62.422-13.992
			c82.867,0,150.294,67.427,150.294,150.294c0,18.164-3.737,35.363-9.669,51.497l9.669,8.371l9.848-8.528
			c24.496-21.237,47.569-40.435,68.939-58.21C446.668,288.377,512,234.865,512,152.923C512,74.591,456.077,15.53,383.249,15.53z"/>
	</g>
</g>
<g>
	<g>
		<path d="M120.235,256C53.83,256,0,309.83,0,376.235C0,442.638,53.83,496.47,120.235,496.47S240.47,442.638,240.47,376.235
			C240.47,309.83,186.64,256,120.235,256z M120.235,361.206c24.863,0,45.088,20.225,45.088,45.088s-20.225,45.088-45.088,45.088
			c-24.863,0-45.088-20.226-45.088-45.088h30.059c0,8.292,6.737,15.029,15.029,15.029c8.292,0,15.029-6.737,15.029-15.029
			c0-8.292-6.737-15.029-15.029-15.029c-24.863,0-45.088-20.225-45.088-45.088c0-24.863,20.225-45.088,45.088-45.088
			c24.863,0,45.088,20.225,45.088,45.088h-30.059c0-8.292-6.737-15.029-15.029-15.029c-8.292,0-15.029,6.737-15.029,15.029
			C105.206,354.468,111.943,361.206,120.235,361.206z"/>
	</g>
</g>
<g>
</g>
<g>
</g>
<g>
</g>
<g>
</g>
<g>
</g>
<g>
</g>
<g>
</g>
<g>
</g>
<g>
</g>
<g>
</g>
<g>
</g>
<g>
</g>
<g>
</g>
<g>
</g>
<g>
</g>
</svg>
