<svg id="Capa_1" enable-background="new 0 0 512 512" height="512" viewBox="0 0 512 512" width="512" xmlns="http://www.w3.org/2000/svg"><g><path d="m61.524 497c0 8.284 6.716 15 15 15h360c8.284 0 15-6.716 15-15v-45h-390z"/><path d="m491.784 170.661c-25.796-25.775-56.004-19.241-62.31-20.22 11.83-78.863-49.022-149.398-127.57-150.43-52.21-.68-97.5 29.23-119.09 72.96-12.01-8.72-26.77-13.88-42.75-13.88-50.13 0-85.1 49.38-68.98 96.51h-4.64c-36.773 0-66.56 29.878-66.44 66.64.1 36.79 30.65 66.26 67.43 66.26h9.09v-17.5c0-24.81 20.19-45 45-45h74.96v-30.03h-24.06c-17.81 0-26.74-21.54-14.14-34.14l91.16-91.19c3.91-3.91 10.24-3.91 14.14 0l91.18 91.22c12.59 12.6 3.67 34.14-14.15 34.14h-24.13v30h75.04c24.81 0 45 20.19 45 45v17.5h6.45c61.689 0 91.88-74.736 48.81-117.84z"/><path d="m286.484 316v-149.999h30l-59.97-60-59.95 59.97h29.92v150.029z"/><path d="m121.524 256.001c-8.284 0-15 6.716-15 15v151h300v-151c0-8.284-6.716-15-15-15h-75.04v75c0 8.284-6.716 15-15 15h-90c-8.284 0-15-6.716-15-15v-75z"/></g></svg>